HIERARCHY
ROOT Hips
{
	OFFSET -49.260769 -43.699543 87.056984
	CHANNELS 6 Xposition Yposition Zposition Zrotation Yrotation Xrotation
	JOINT Spine
	{
		OFFSET 0.000000 2.080109 8.814247
		CHANNELS 6 Xposition Yposition Zposition Zrotation Yrotation Xrotation
		JOINT Spine1
		{
			OFFSET 0.000000 0.000000 8.844139
			CHANNELS 6 Xposition Yposition Zposition Zrotation Yrotation Xrotation
			JOINT Spine2
			{
				OFFSET 0.000000 0.000000 11.682266
				CHANNELS 6 Xposition Yposition Zposition Zrotation Yrotation Xrotation
				JOINT Spine3
				{
					OFFSET 0.000000 0.000004 11.746696
					CHANNELS 6 Xposition Yposition Zposition Zrotation Yrotation Xrotation
					JOINT Neck
					{
						OFFSET 0.000000 0.000000 17.658264
						CHANNELS 6 Xposition Yposition Zposition Zrotation Yrotation Xrotation
						JOINT Neck1
						{
							OFFSET 0.000000 0.000000 5.101517
							CHANNELS 6 Xposition Yposition Zposition Zrotation Yrotation Xrotation
							JOINT Head
							{
								OFFSET 0.000000 0.000000 5.101517
								CHANNELS 6 Xposition Yposition Zposition Zrotation Yrotation Xrotation
								JOINT HeadEnd
								{
									OFFSET 0.000000 0.000000 11.655090
									CHANNELS 6 Xposition Yposition Zposition Zrotation Yrotation Xrotation
									End Site
									{
										OFFSET 0.000000 0.000000 0.100006
									}
								}
							}
						}
					}
					JOINT RightShoulder
					{
						OFFSET -2.625389 0.000000 11.175217
						CHANNELS 6 Xposition Yposition Zposition Zrotation Yrotation Xrotation
						JOINT RightArm
						{
							OFFSET 0.000000 0.000000 10.434723
							CHANNELS 6 Xposition Yposition Zposition Zrotation Yrotation Xrotation
							JOINT RightForeArm
							{
								OFFSET 0.000000 0.000004 29.628418
								CHANNELS 6 Xposition Yposition Zposition Zrotation Yrotation Xrotation
								JOINT RightHand
								{
									OFFSET 0.000000 0.000000 22.857605
									CHANNELS 6 Xposition Yposition Zposition Zrotation Yrotation Xrotation
									JOINT RightHandThumb1
									{
										OFFSET -2.867321 -2.944290 3.959564
										CHANNELS 6 Xposition Yposition Zposition Zrotation Yrotation Xrotation
										JOINT RightHandThumb2
										{
											OFFSET 0.000000 0.000000 3.350403
											CHANNELS 6 Xposition Yposition Zposition Zrotation Yrotation Xrotation
											JOINT RightHandThumb3
											{
												OFFSET 0.000000 0.000000 3.756516
												CHANNELS 6 Xposition Yposition Zposition Zrotation Yrotation Xrotation
												JOINT RightHandThumb4
												{
													OFFSET 0.000000 0.000000 3.147339
													CHANNELS 6 Xposition Yposition Zposition Zrotation Yrotation Xrotation
													End Site
													{
														OFFSET 0.000000 0.000000 0.100006
													}
												}
											}
										}
									}
									JOINT RightHandIndex1
									{
										OFFSET -0.086754 -2.345280 10.030899
										CHANNELS 6 Xposition Yposition Zposition Zrotation Yrotation Xrotation
										JOINT RightHandIndex2
										{
											OFFSET 0.000000 0.000000 4.061096
											CHANNELS 6 Xposition Yposition Zposition Zrotation Yrotation Xrotation
											JOINT RightHandIndex3
											{
												OFFSET 0.000000 0.000000 3.248871
												CHANNELS 6 Xposition Yposition Zposition Zrotation Yrotation Xrotation
												JOINT RightHandIndex4
												{
													OFFSET 0.000000 0.000000 2.639709
													CHANNELS 6 Xposition Yposition Zposition Zrotation Yrotation Xrotation
													End Site
													{
														OFFSET 0.000000 0.000000 0.100006
													}
												}
											}
										}
									}
									JOINT RightHandMiddle1
									{
										OFFSET 0.104103 -0.006767 9.502945
										CHANNELS 6 Xposition Yposition Zposition Zrotation Yrotation Xrotation
										JOINT RightHandMiddle2
										{
											OFFSET 0.000000 0.000000 4.568726
											CHANNELS 6 Xposition Yposition Zposition Zrotation Yrotation Xrotation
											JOINT RightHandMiddle3
											{
												OFFSET 0.000000 0.000000 3.654984
												CHANNELS 6 Xposition Yposition Zposition Zrotation Yrotation Xrotation
												JOINT RightHandMiddle4
												{
													OFFSET 0.000000 0.000000 2.741241
													CHANNELS 6 Xposition Yposition Zposition Zrotation Yrotation Xrotation
													End Site
													{
														OFFSET 0.000000 0.000000 0.100006
													}
												}
											}
										}
									}
									JOINT RightHandRing1
									{
										OFFSET 0.086754 2.267441 8.921707
										CHANNELS 6 Xposition Yposition Zposition Zrotation Yrotation Xrotation
										JOINT RightHandRing2
										{
											OFFSET 0.000000 0.000000 4.061096
											CHANNELS 6 Xposition Yposition Zposition Zrotation Yrotation Xrotation
											JOINT RightHandRing3
											{
												OFFSET 0.000000 0.000000 3.654984
												CHANNELS 6 Xposition Yposition Zposition Zrotation Yrotation Xrotation
												JOINT RightHandRing4
												{
													OFFSET 0.000000 0.000000 2.741241
													CHANNELS 6 Xposition Yposition Zposition Zrotation Yrotation Xrotation
													End Site
													{
														OFFSET 0.000000 0.000000 0.100006
													}
												}
											}
										}
									}
									JOINT RightHandPinky1
									{
										OFFSET -0.173504 4.467197 7.976990
										CHANNELS 6 Xposition Yposition Zposition Zrotation Yrotation Xrotation
										JOINT RightHandPinky2
										{
											OFFSET 0.000000 0.000000 3.350403
											CHANNELS 6 Xposition Yposition Zposition Zrotation Yrotation Xrotation
											JOINT RightHandPinky3
											{
												OFFSET 0.000000 0.000000 2.842758
												CHANNELS 6 Xposition Yposition Zposition Zrotation Yrotation Xrotation
												JOINT RightHandPinky4
												{
													OFFSET 0.000000 0.000000 2.639709
													CHANNELS 6 Xposition Yposition Zposition Zrotation Yrotation Xrotation
													End Site
													{
														OFFSET 0.000000 0.000000 0.100006
													}
												}
											}
										}
									}
									JOINT RightForeArmEnd
									{
										OFFSET 0.000000 0.000000 0.000000
										CHANNELS 6 Xposition Yposition Zposition Zrotation Yrotation Xrotation
										End Site
										{
											OFFSET 0.000000 0.000000 0.100006
										}
									}
								}
								JOINT RightArmEnd
								{
									OFFSET 0.000000 0.000000 0.000000
									CHANNELS 6 Xposition Yposition Zposition Zrotation Yrotation Xrotation
									End Site
									{
										OFFSET 0.000000 0.000000 0.100006
									}
								}
							}
						}
					}
					JOINT LeftShoulder
					{
						OFFSET 2.625389 0.000000 11.175217
						CHANNELS 6 Xposition Yposition Zposition Zrotation Yrotation Xrotation
						JOINT LeftArm
						{
							OFFSET 0.000000 0.000000 10.813629
							CHANNELS 6 Xposition Yposition Zposition Zrotation Yrotation Xrotation
							JOINT LeftForeArm
							{
								OFFSET 0.000000 0.000004 28.724777
								CHANNELS 6 Xposition Yposition Zposition Zrotation Yrotation Xrotation
								JOINT LeftHand
								{
									OFFSET 0.644382 0.328873 25.716171
									CHANNELS 6 Xposition Yposition Zposition Zrotation Yrotation Xrotation
									JOINT LeftHandThumb1
									{
										OFFSET 2.867325 -2.944290 3.959564
										CHANNELS 6 Xposition Yposition Zposition Zrotation Yrotation Xrotation
										JOINT LeftHandThumb2
										{
											OFFSET 0.000000 0.000000 3.350403
											CHANNELS 6 Xposition Yposition Zposition Zrotation Yrotation Xrotation
											JOINT LeftHandThumb3
											{
												OFFSET 0.000000 0.000000 3.756516
												CHANNELS 6 Xposition Yposition Zposition Zrotation Yrotation Xrotation
												JOINT LeftHandThumb4
												{
													OFFSET 0.000000 0.000000 3.100006
													CHANNELS 6 Xposition Yposition Zposition Zrotation Yrotation Xrotation
													End Site
													{
														OFFSET 0.000000 0.000000 0.100006
													}
												}
											}
										}
									}
									JOINT LeftHandIndex1
									{
										OFFSET 0.086754 -2.345280 10.030899
										CHANNELS 6 Xposition Yposition Zposition Zrotation Yrotation Xrotation
										JOINT LeftHandIndex2
										{
											OFFSET 0.000000 0.000000 4.061096
											CHANNELS 6 Xposition Yposition Zposition Zrotation Yrotation Xrotation
											JOINT LeftHandIndex3
											{
												OFFSET 0.000000 0.000000 3.248871
												CHANNELS 6 Xposition Yposition Zposition Zrotation Yrotation Xrotation
												JOINT LeftHandIndex4
												{
													OFFSET 0.000000 0.000000 2.639709
													CHANNELS 6 Xposition Yposition Zposition Zrotation Yrotation Xrotation
													End Site
													{
														OFFSET 0.000000 0.000000 0.100006
													}
												}
											}
										}
									}
									JOINT LeftHandMiddle1
									{
										OFFSET -0.104103 -0.006767 9.502945
										CHANNELS 6 Xposition Yposition Zposition Zrotation Yrotation Xrotation
										JOINT LeftHandMiddle2
										{
											OFFSET 0.000000 0.000000 4.568726
											CHANNELS 6 Xposition Yposition Zposition Zrotation Yrotation Xrotation
											JOINT LeftHandMiddle3
											{
												OFFSET 0.000000 0.000000 3.654984
												CHANNELS 6 Xposition Yposition Zposition Zrotation Yrotation Xrotation
												JOINT LeftHandMiddle4
												{
													OFFSET 0.000000 0.000000 2.741241
													CHANNELS 6 Xposition Yposition Zposition Zrotation Yrotation Xrotation
													End Site
													{
														OFFSET 0.000000 0.000000 0.100006
													}
												}
											}
										}
									}
									JOINT LeftHandRing1
									{
										OFFSET -0.086754 2.267441 8.921707
										CHANNELS 6 Xposition Yposition Zposition Zrotation Yrotation Xrotation
										JOINT LeftHandRing2
										{
											OFFSET 0.000000 0.000000 4.061096
											CHANNELS 6 Xposition Yposition Zposition Zrotation Yrotation Xrotation
											JOINT LeftHandRing3
											{
												OFFSET 0.000000 0.000000 3.654984
												CHANNELS 6 Xposition Yposition Zposition Zrotation Yrotation Xrotation
												JOINT LeftHandRing4
												{
													OFFSET 0.000000 0.000000 2.741241
													CHANNELS 6 Xposition Yposition Zposition Zrotation Yrotation Xrotation
													End Site
													{
														OFFSET 0.000000 0.000000 0.100006
													}
												}
											}
										}
									}
									JOINT LeftHandPinky1
									{
										OFFSET 0.173504 4.467197 7.976990
										CHANNELS 6 Xposition Yposition Zposition Zrotation Yrotation Xrotation
										JOINT LeftHandPinky2
										{
											OFFSET 0.000000 0.000000 3.350403
											CHANNELS 6 Xposition Yposition Zposition Zrotation Yrotation Xrotation
											JOINT LeftHandPinky3
											{
												OFFSET 0.000000 0.000000 2.842758
												CHANNELS 6 Xposition Yposition Zposition Zrotation Yrotation Xrotation
												JOINT LeftHandPinky4
												{
													OFFSET 0.000000 0.000000 2.639709
													CHANNELS 6 Xposition Yposition Zposition Zrotation Yrotation Xrotation
													End Site
													{
														OFFSET 0.000000 0.000000 0.100006
													}
												}
											}
										}
									}
									JOINT LeftForeArmEnd
									{
										OFFSET 0.000000 0.000000 0.000000
										CHANNELS 6 Xposition Yposition Zposition Zrotation Yrotation Xrotation
										End Site
										{
											OFFSET 0.000000 0.000000 0.100006
										}
									}
								}
								JOINT LeftArmEnd
								{
									OFFSET 0.000000 0.000000 0.000000
									CHANNELS 6 Xposition Yposition Zposition Zrotation Yrotation Xrotation
									End Site
									{
										OFFSET 0.000000 0.000000 0.100006
									}
								}
							}
						}
					}
				}
			}
		}
	}
	JOINT RightUpLeg
	{
		OFFSET -11.289944 0.000000 0.000000
		CHANNELS 6 Xposition Yposition Zposition Zrotation Yrotation Xrotation
		JOINT RightLeg
		{
			OFFSET 0.000000 -0.000004 -38.200321
			CHANNELS 6 Xposition Yposition Zposition Zrotation Yrotation Xrotation
			JOINT RightFoot
			{
				OFFSET 0.000000 -0.000004 -39.900856
				CHANNELS 6 Xposition Yposition Zposition Zrotation Yrotation Xrotation
				JOINT RightToeBase
				{
					OFFSET 0.000000 -15.261639 0.000002
					CHANNELS 6 Xposition Yposition Zposition Zrotation Yrotation Xrotation
					JOINT RightToeBaseEnd
					{
						OFFSET 0.000000 -7.370712 0.000000
						CHANNELS 6 Xposition Yposition Zposition Zrotation Yrotation Xrotation
						End Site
						{
							OFFSET 0.000000 0.000000 0.100000
						}
					}
				}
				JOINT RightLegEnd
				{
					OFFSET 0.000000 0.000000 0.000000
					CHANNELS 6 Xposition Yposition Zposition Zrotation Yrotation Xrotation
					End Site
					{
						OFFSET 0.000000 0.000000 0.100000
					}
				}
			}
			JOINT RightUpLegEnd
			{
				OFFSET 0.000000 0.000000 0.000000
				CHANNELS 6 Xposition Yposition Zposition Zrotation Yrotation Xrotation
				End Site
				{
					OFFSET 0.000000 0.000000 0.099998
				}
			}
		}
	}
	JOINT LeftUpLeg
	{
		OFFSET 11.315662 0.000000 0.000000
		CHANNELS 6 Xposition Yposition Zposition Zrotation Yrotation Xrotation
		JOINT LeftLeg
		{
			OFFSET 0.000000 -0.000004 -38.200321
			CHANNELS 6 Xposition Yposition Zposition Zrotation Yrotation Xrotation
			JOINT LeftFoot
			{
				OFFSET 0.000000 -0.000004 -39.900856
				CHANNELS 6 Xposition Yposition Zposition Zrotation Yrotation Xrotation
				JOINT LeftToeBase
				{
					OFFSET 0.000000 -15.261639 0.000002
					CHANNELS 6 Xposition Yposition Zposition Zrotation Yrotation Xrotation
					JOINT LeftToeBaseEnd
					{
						OFFSET 0.000000 -7.539993 0.000000
						CHANNELS 6 Xposition Yposition Zposition Zrotation Yrotation Xrotation
						End Site
						{
							OFFSET 0.000000 0.000000 0.100000
						}
					}
				}
				JOINT LeftLegEnd
				{
					OFFSET 0.000000 0.000000 0.000000
					CHANNELS 6 Xposition Yposition Zposition Zrotation Yrotation Xrotation
					End Site
					{
						OFFSET 0.000000 0.000000 0.100000
					}
				}
			}
			JOINT LeftUpLegEnd
			{
				OFFSET 0.000000 0.000000 0.000000
				CHANNELS 6 Xposition Yposition Zposition Zrotation Yrotation Xrotation
				End Site
				{
					OFFSET 0.000000 0.000000 0.099998
				}
			}
		}
	}
}
MOTION
Frames: 2
Frame Time: 0.016667
-23.804108 -51.505630 87.332619 23.874901 5.072701 -9.174906 0.000002 2.080102 8.814260 -1.038315 -4.897228 6.504469 0.000004 0.000005 8.844133 -0.156531 -2.136174 3.628563 -0.000001 -0.000004 11.682261 2.015631 -0.213644 3.645202 -0.000000 0.000004 11.746710 1.471025 1.283861 1.459881 -0.000004 -0.000005 17.658287 -4.253611 -8.597409 21.532376 -0.000005 -0.000003 5.101547 -3.775237 4.324728 -2.909383 -0.000005 0.000004 5.101541 2.876953 0.471525 -29.499181 -0.000006 -0.000002 11.655106 0.000001 0.000000 0.000001 -2.625394 0.000001 11.175219 11.407503 -76.089530 -0.419470 -0.000015 -0.000010 10.434746 50.419719 -22.277994 8.974073 0.000002 -0.000013 29.628418 37.116757 -4.260350 93.484014 -0.000008 -0.000002 22.857578 63.303908 10.162323 8.753153 -2.867326 -2.944254 3.959555 33.529624 -29.323648 34.785078 0.000010 -0.000019 3.350443 -38.923848 8.843067 -65.314381 0.000013 0.000015 3.756496 -26.237388 11.072373 -44.834885 -0.000001 0.000013 3.147351 0.000001 -0.000001 0.000003 -0.086757 -2.345278 10.030900 46.644632 -115.157358 -52.027907 0.000018 0.000003 4.061098 -19.211367 -72.585281 26.619508 -0.000006 0.000003 3.248877 -19.711333 -72.585281 26.619486 -0.000014 -0.000004 2.639692 -0.000001 -0.000000 0.000003 0.104109 -0.006764 9.502949 40.594017 -110.437882 -41.740061 0.000018 -0.000010 4.568723 -7.121926 -73.505150 10.194160 0.000002 -0.000012 3.654981 -7.621883 -73.505082 10.194110 -0.000016 0.000004 2.741226 0.000001 0.000000 0.000001 0.086778 2.267447 8.921738 15.618472 -108.914859 -14.555688 0.000027 0.000001 4.061144 9.306873 -75.178567 -13.364238 0.000041 -0.000001 3.654989 10.306875 -75.178547 -13.364221 -0.000006 -0.000006 2.741209 -0.000001 -0.000002 -0.000001 -0.173516 4.467204 7.976989 -191.272754 -72.487732 194.359426 -0.000003 0.000010 3.350384 22.685956 -70.907390 -34.164490 -0.000000 -0.000002 2.842744 24.685938 -70.907370 -34.164453 0.000005 0.000001 2.639694 0.000000 0.000001 0.000001 -0.000001 0.000014 0.000000 -0.000002 0.000000 -0.000000 0.000001 -0.000007 -0.000014 0.000003 0.000001 -0.000000 2.625386 -0.000003 11.175237 -11.836800 77.688901 -1.379181 -0.000006 -0.000006 10.813631 -37.983526 26.208679 14.963285 0.000007 -0.000020 28.724775 -32.425616 6.467198 93.099194 0.644386 0.328869 25.716167 -53.214820 -18.238610 4.217514 2.867323 -2.944290 3.959555 -32.792011 27.372137 37.391468 0.000006 0.000015 3.350369 34.922846 -10.052919 -58.756846 -0.000010 0.000011 3.756505 23.319089 -10.947676 -40.180814 0.000002 0.000002 3.100003 0.000000 -0.000003 0.000000 0.086765 -2.345275 10.030869 -29.722142 93.487176 -44.014490 0.000025 0.000000 4.061118 -10.956103 65.302086 -17.793608 0.000008 -0.000001 3.248844 -11.456333 65.302776 -17.793952 -0.000009 0.000005 2.639698 0.000001 0.000003 -0.000002 -0.104095 -0.006766 9.502934 -59.327365 97.576704 -67.835827 0.000009 -0.000012 4.568720 -3.855699 65.871628 -6.719195 0.000015 -0.000000 3.654972 -4.355699 65.871622 -6.719196 0.000007 0.000011 2.741244 -0.000000 0.000001 -0.000003 -0.086730 2.267442 8.921674 -62.190238 106.341879 -62.985525 0.000042 -0.000004 4.061096 4.881727 68.006274 8.709854 0.000013 0.000005 3.654991 5.881715 68.006261 8.709846 -0.000015 -0.000000 2.741240 0.000001 -0.000001 0.000001 0.173523 4.467199 7.976975 -80.466561 113.164685 -71.509246 0.000021 0.000005 3.350407 13.517239 64.698885 24.279886 0.000016 0.000000 2.842750 15.517210 64.698871 24.279856 -0.000004 0.000003 2.639726 0.000001 0.000003 0.000002 0.000005 -0.000005 0.000015 0.000001 -0.000000 0.000000 0.000003 0.000001 0.000001 0.000000 0.000001 0.000000 -11.289943 -0.000007 -0.000009 -7.555070 -8.545748 16.439746 -0.000000 -0.000002 -38.200329 -0.547278 0.131246 13.581274 0.000003 -0.000001 -39.900856 -6.309470 9.611585 18.733884 -0.000002 -15.261635 -0.000004 -1.546442 -0.950656 -35.407817 0.000002 -7.370705 -0.000001 0.000000 -0.000001 -0.000000 -0.000005 0.000003 -0.000001 0.000001 -0.000001 0.000003 0.000005 0.000001 -0.000012 -0.000001 -0.000000 0.000001 11.315660 -0.000016 0.000009 -9.868985 -11.335355 -4.095866 0.000004 -0.000008 -38.200310 0.854847 -0.417377 26.021931 -0.000003 -0.000003 -39.900852 -4.074351 0.966965 17.148752 -0.000001 -15.261646 0.000003 0.604016 -0.329277 -27.496783 0.000000 -7.539994 -0.000000 0.000000 -0.000000 0.000000 0.000000 0.000005 -0.000004 -0.000001 -0.000000 0.000001 0.000002 -0.000001 0.000004 0.000001 0.000000 -0.000000 
-23.851213 -51.396107 87.398987 23.774184 4.993557 -9.228895 0.000006 2.080105 8.814247 -0.976375 -4.896661 6.240433 0.000002 -0.000001 8.844125 -0.088546 -2.080149 3.212865 0.000002 0.000002 11.682262 2.135901 -0.165554 3.798220 0.000003 0.000003 11.746700 1.572217 1.335282 1.572387 -0.000000 -0.000007 17.658268 -4.499583 -8.845127 22.074733 0.000004 0.000002 5.101503 -3.844535 4.231129 -2.631703 -0.000005 0.000011 5.101521 2.854145 0.374232 -29.303141 -0.000001 0.000004 11.655091 -0.000001 0.000001 -0.000000 -2.625397 0.000002 11.175233 12.356821 -74.329704 -0.535410 -0.000028 -0.000004 10.434725 44.756747 -19.514354 15.290418 -0.000009 0.000017 29.628412 39.538247 -4.962079 78.155519 0.000004 -0.000004 22.857603 61.195476 10.395223 5.584767 -2.867335 -2.944283 3.959538 33.368527 -28.932955 35.307109 0.000011 -0.000017 3.350405 -38.136361 9.121386 -64.011372 0.000005 0.000011 3.756540 -25.653250 11.066052 -43.903653 0.000005 -0.000007 3.147353 -0.000001 -0.000001 -0.000000 -0.086766 -2.345301 10.030878 52.214047 -113.187757 -59.080808 0.000011 -0.000003 4.061097 -16.181879 -70.531696 23.426634 0.000004 -0.000002 3.248886 -16.681907 -70.531716 23.426658 -0.000022 -0.000006 2.639693 0.000001 0.000001 0.000002 0.104102 -0.006776 9.502921 47.237295 -108.211725 -49.856645 -0.000018 -0.000011 4.568721 -5.883506 -71.276760 8.895104 -0.000002 -0.000007 3.654976 -6.383508 -71.276767 8.895102 0.000024 0.000002 2.741228 -0.000001 0.000001 -0.000000 0.086761 2.267440 8.921711 19.143352 -105.913927 -19.867811 0.000022 -0.000004 4.061089 7.636898 -73.120242 -11.628525 0.000008 -0.000001 3.654996 8.636862 -73.120194 -11.628497 -0.000002 -0.000004 2.741225 0.000000 -0.000001 0.000000 -0.173531 4.467184 7.976964 -193.518206 -75.888811 194.285551 0.000003 0.000010 3.350417 19.579658 -69.246193 -30.860881 -0.000008 0.000010 2.842776 21.579660 -69.246220 -30.860895 0.000013 -0.000000 2.639725 0.000000 -0.000000 -0.000001 -0.000008 -0.000001 -0.000033 -0.000001 -0.000001 0.000002 0.000001 0.000005 0.000001 -0.000001 0.000001 0.000000 2.625390 -0.000004 11.175220 -12.870614 76.327610 -1.574899 -0.000001 -0.000013 10.813640 -34.153722 22.014991 22.068065 -0.000021 -0.000012 28.724806 -33.655952 7.043940 81.203006 0.644396 0.328867 25.716185 -50.834222 -19.870905 2.181949 2.867321 -2.944294 3.959581 -32.603905 26.788448 38.171158 -0.000007 0.000010 3.350411 33.695195 -10.326634 -56.770196 -0.000012 0.000008 3.756496 22.446998 -10.864964 -38.787053 -0.000002 0.000010 3.100019 0.000001 -0.000002 0.000002 0.086751 -2.345264 10.030881 -111.120068 91.944605 -126.756891 0.000002 0.000001 4.061107 -9.343975 62.987731 -16.002578 0.000008 -0.000004 3.248866 -9.843958 62.987690 -16.002553 0.000007 0.000003 2.639740 -0.000001 0.000001 0.000000 -0.104122 -0.006761 9.502958 -86.942175 96.564572 -97.200408 -0.000010 -0.000003 4.568729 -3.240877 63.521046 -6.039266 0.000019 -0.000004 3.654969 -3.740908 63.521067 -6.039286 0.000001 0.000003 2.741239 0.000001 -0.000003 -0.000001 -0.086729 2.267440 8.921698 -71.786238 105.241706 -74.500855 0.000032 -0.000000 4.061095 4.109290 65.932192 7.870659 0.000021 0.000004 3.655013 5.109294 65.932219 7.870652 0.000009 0.000005 2.741225 0.000000 -0.000003 -0.000002 0.173524 4.467199 7.976995 -85.848730 112.962265 -78.681197 -0.000013 0.000001 3.350405 11.931014 63.085410 22.513625 0.000011 0.000000 2.842773 13.931028 63.085430 22.513637 0.000001 0.000001 2.639696 -0.000000 0.000003 0.000001 -0.000004 0.000004 0.000013 0.000002 -0.000000 0.000002 -0.000003 -0.000001 0.000044 0.000000 -0.000001 0.000001 -11.289938 -0.000005 -0.000010 -7.440396 -8.480464 16.286957 0.000003 0.000006 -38.200329 -0.538956 0.130010 13.714199 0.000003 -0.000008 -39.900852 -6.245994 9.635257 18.899987 -0.000009 -15.261637 0.000006 -1.553933 -0.957266 -35.401694 -0.000000 -7.370712 0.000000 -0.000000 -0.000000 -0.000000 -0.000009 0.000001 0.000004 -0.000000 0.000001 0.000000 0.000003 -0.000003 0.000000 0.000001 0.000000 -0.000000 11.315665 -0.000015 -0.000007 -9.708662 -11.268725 -4.045577 0.000003 -0.000005 -38.200325 0.845276 -0.408191 25.774595 0.000003 0.000004 -39.900852 -4.099743 0.964161 17.554471 0.000001 -15.261645 0.000008 0.601053 -0.319482 -27.469358 0.000001 -7.539993 0.000000 0.000000 0.000000 -0.000000 -0.000000 0.000005 0.000001 -0.000000 -0.000001 0.000002 0.000004 0.000003 0.000009 0.000001 0.000001 -0.000001 
